Coordinates
version=1
nRows=60
nColumns=12
inDegrees=yes

Units are S.I. units (second, meters, Newtons, ...)
Angles are in degrees

endheader
time	SC_y	SC_z	SC_x	AC_y	AC_z	AC_x	GH_y	GH_z	GH_yy	EL_x	PS_y
       0.0               -15.7          30.15          16.23          60.93         -14.78          7.937          124.4          72.91         -173.1          9.047          53.37
 0.0007641               -15.7          30.15          16.23          60.93         -14.77          7.938          124.4          72.91         -173.0          9.061          53.36
  0.001528              -15.71          30.15          16.23          60.92         -14.77           7.94          124.4          72.91         -173.0          9.075          53.36
  0.002292              -15.71          30.15          16.23          60.92         -14.77          7.942          124.3          72.91         -173.0          9.091          53.35
  0.003056              -15.71          30.14          16.23          60.92         -14.76          7.943          124.3          72.91         -172.9          9.107          53.34
   0.00382              -15.71          30.14          16.23          60.92         -14.76          7.945          124.3          72.91         -172.9          9.125          53.34
  0.004585              -15.72          30.14          16.23          60.91         -14.75          7.947          124.2          72.91         -172.8          9.144          53.33
  0.005349              -15.72          30.14          16.23          60.91         -14.75           7.95          124.2          72.91         -172.8          9.164          53.32
  0.006113              -15.73          30.13          16.23          60.91         -14.74          7.952          124.2          72.91         -172.7          9.186          53.32
  0.006877              -15.73          30.13          16.23           60.9         -14.74          7.954          124.1          72.91         -172.7          9.209          53.31
  0.007641              -15.73          30.12          16.23           60.9         -14.73          7.957          124.1          72.91         -172.6          9.234           53.3
  0.008405              -15.74          30.12          16.23           60.9         -14.72           7.96          124.0          72.91         -172.6           9.26          53.29
  0.009169              -15.74          30.12          16.23          60.89         -14.71          7.963          123.9          72.91         -172.5          9.289          53.28
  0.009933              -15.75          30.11          16.23          60.89         -14.71          7.966          123.9          72.91         -172.4           9.32          53.27
    0.0107              -15.76          30.11          16.23          60.88          -14.7           7.97          123.8          72.91         -172.3          9.354          53.25
   0.01146              -15.76           30.1          16.23          60.88         -14.69          7.974          123.7           72.9         -172.3          9.391          53.24
   0.01223              -15.77           30.1          16.23          60.87         -14.68          7.978          123.7           72.9         -172.2           9.43          53.22
   0.01299              -15.78          30.09          16.23          60.86         -14.67          7.983          123.6           72.9         -172.1          9.474          53.21
   0.01375              -15.79          30.08          16.23          60.86         -14.66          7.988          123.5           72.9         -172.0          9.521          53.19
   0.01452               -15.8          30.08          16.23          60.85         -14.64          7.994          123.4           72.9         -171.8          9.573          53.17
   0.01528              -15.81          30.07          16.23          60.84         -14.63            8.0          123.3           72.9         -171.7           9.63          53.15
   0.01605              -15.82          30.06          16.23          60.83         -14.61          8.006          123.2           72.9         -171.6          9.692          53.13
   0.01681              -15.83          30.05          16.23          60.82         -14.59          8.014          123.0          72.89         -171.4          9.761           53.1
   0.01757              -15.84          30.04          16.23          60.81         -14.57          8.022          122.9          72.89         -171.2          9.838          53.07
   0.01834              -15.86          30.03          16.23           60.8         -14.55          8.031          122.7          72.89         -171.0          9.923          53.04
    0.0191              -15.88          30.01          16.23          60.78         -14.53          8.041          122.5          72.89         -170.8          10.02          53.01
   0.01987               -15.9           30.0          16.23          60.77          -14.5          8.053          122.3          72.89         -170.5          10.12          52.97
   0.02063              -15.92          29.98          16.23          60.75         -14.47          8.066          122.1          72.88         -170.3          10.24          52.92
   0.02139              -15.94          29.96          16.23          60.73         -14.44           8.08          121.8          72.88         -170.0          10.38          52.87
   0.02216              -15.97          29.94          16.23          60.71          -14.4          8.097          121.5          72.87         -169.6          10.53          52.82
   0.02292               -16.0          29.91          16.23          60.68         -14.35          8.116          121.2          72.87         -169.2          10.71          52.75
   0.02369              -16.04          29.88          16.24          60.65          -14.3          8.138          120.8          72.87         -168.7          10.91          52.68
   0.02445              -16.08          29.85          16.24          60.62         -14.24          8.163          120.3          72.86         -168.2          11.14          52.59
   0.02522              -16.13          29.81          16.24          60.58         -14.17          8.192          119.8          72.85         -167.5          11.41          52.49
   0.02598              -16.19          29.76          16.24          60.53         -14.09          8.226          119.2          72.84         -166.8          11.73          52.38
   0.02674              -16.25          29.71          16.24          60.48          -14.0          8.266          118.4          72.83         -165.9           12.1          52.24
   0.02751              -16.33          29.65          16.24          60.41         -13.89          8.313          117.6          72.82         -164.9          12.54          52.08
   0.02827              -16.43          29.57          16.24          60.34         -13.75           8.37          116.5          72.81         -163.7          13.07          51.88
   0.02904              -16.55          29.48          16.25          60.24         -13.59           8.44          115.3          72.79         -162.2          13.71          51.64
    0.0298              -16.69          29.36          16.25          60.13         -13.39          8.524          113.7          72.77         -160.3           14.5          51.35
   0.03056              -16.86          29.22          16.25          59.98         -13.14          8.628          111.8          72.75         -158.1          15.46           51.0
   0.03133              -17.08          29.05          16.26          59.81         -12.83          8.758          109.4          72.72         -155.2          16.67          50.55
   0.03209              -17.36          28.83          16.26          59.58         -12.45          8.922          106.5          72.68         -151.7          18.19          49.99
   0.03286              -17.71          28.55          16.27           59.3         -11.95           9.13          102.7          72.63         -147.2          20.12          49.28
   0.03362              -18.15          28.19          16.28          58.94         -11.32          9.396           97.8          72.56         -141.4          22.59          48.36
   0.03438              -18.73          27.73          16.29          58.47         -10.51          9.738          91.56          72.48         -134.0          25.76          47.19
   0.03515              -19.46          27.15          16.31          57.87         -9.482          10.17           83.6          72.38         -124.5          29.82          45.69
   0.03591              -20.38          26.41          16.32          57.13         -8.183          10.72          73.58          72.25         -112.6          34.91          43.81
   0.03668              -21.51          25.51          16.35          56.21           -6.6          11.39          61.37          72.09         -98.09          41.12          41.52
   0.03744              -22.81          24.47          16.37          55.16         -4.766          12.17          47.23           71.9         -81.27          48.32          38.86
    0.0382              -24.22          23.34           16.4          54.01         -2.779          13.01          31.91           71.7         -63.05          56.11          35.98
   0.03897              -25.63          22.21          16.43          52.86        -0.7931          13.85          16.59           71.5         -44.83           63.9           33.1
   0.03973              -26.94          21.17          16.46          51.81          1.041          14.62          2.443          71.32         -28.01           71.1          30.44
    0.0405              -28.06          20.27          16.48          50.89          2.624          15.29         -9.762          71.16         -13.49           77.3          28.15
   0.04126              -28.99          19.54           16.5          50.15          3.923          15.84         -19.78          71.02         -1.585           82.4          26.27
   0.04203              -29.72          18.95          16.52          49.55          4.956          16.27         -27.74          70.92          7.888          86.45          24.77
   0.04279              -30.29          18.49          16.53          49.08          5.764          16.62         -33.98          70.84           15.3          89.62           23.6
   0.04355              -30.74          18.13          16.54          48.72          6.395          16.88         -38.84          70.77          21.08           92.1          22.69
   0.04432              -31.09          17.85          16.54          48.44          6.887          17.09         -42.63          70.72           25.6          94.03          21.97
   0.04508              -31.37          17.63          16.55          48.21          7.274          17.25         -45.62          70.69          29.15          95.55          21.41
